<svg width="64" height="64" viewBox="0 0 64 64" fill="none" xmlns="http://www.w3.org/2000/svg">
<rect x="13.4374" y="20.7557" width="37.9688" height="38.2442" rx="6.98706" fill="url(#paint0_linear_2689_60594)"/>
<rect x="13.4374" y="17.2623" width="37.9688" height="38.2442" rx="6.98706" fill="url(#paint1_linear_2689_60594)"/>
<path fill-rule="evenodd" clip-rule="evenodd" d="M38.0372 28.5109C38.2361 28.3186 38.5059 29.5867 38.7873 29.5867C39.0686 29.5867 39.3384 29.6948 39.5373 29.8871L42.72 31.5889C42.9189 31.7813 43.0306 32.0423 43.0306 32.3143C43.0306 32.5864 42.9189 34.2235 42.72 34.4159L39.5373 37.4939C39.3372 37.6808 39.0692 37.7842 38.7911 37.7819C38.5129 37.7795 38.2468 37.6716 38.0501 37.4814C37.8534 37.2912 37.7419 35.6576 37.7394 35.3886C37.737 35.1196 37.844 34.8604 38.0372 34.6669L39.4089 34.7165H27.1174C25.9436 34.7165 23.9348 35.258 23.9348 36.6935C23.9348 36.9657 23.823 38.3276 23.624 38.52C23.4251 38.7124 23.1552 38.8205 22.8739 38.8205C22.5925 38.8205 22.3227 38.7124 22.1237 38.52C21.9248 38.3276 21.813 36.9657 21.813 36.6935C21.813 35.333 22.3718 35.1291 23.3666 34.1671C24.3614 33.205 25.7106 32.6645 27.1174 32.6645H39.4089L38.0372 31.3379C37.8383 31.1455 37.7266 29.5084 37.7266 29.2363C37.7266 28.9643 37.8383 28.7034 38.0372 28.5109ZM26.8066 38.7709C27.0055 38.9633 27.1172 39.2242 27.1172 39.4963C27.1172 39.7684 27.0055 41.4055 26.8066 41.5979L25.4349 42.9245H37.7264C38.5705 42.9245 39.38 42.6002 39.9769 42.023C40.5737 41.4457 40.909 40.6628 40.909 39.8465C40.909 39.5744 41.0208 39.3134 41.2198 39.121C41.4187 38.9286 41.6886 38.8205 41.9699 38.8205C42.2513 38.8205 42.5211 37.8276 42.7201 38.0201C42.919 38.2125 43.0308 38.4734 43.0308 38.7455C43.0308 40.1061 42.472 42.5119 41.4772 43.4739C40.4824 44.436 39.1332 44.9765 37.7264 44.9765H25.4349L26.8066 45.2021C26.9079 45.2968 26.9888 45.41 27.0444 45.5352C27.1 45.6604 27.1292 45.5197 27.1304 45.656C27.1317 45.7922 27.1048 47.3035 27.0515 47.4296C26.9981 47.5557 26.9194 47.6702 26.8198 47.7666C26.7201 47.8629 26.6017 47.9391 26.4713 47.9907C26.3409 48.0423 26.2012 48.0682 26.0604 48.067C25.9195 48.0659 25.7803 48.0376 25.6509 47.9838C25.5214 47.93 25.4044 47.8518 25.3065 47.7539L22.1238 44.6759C21.9249 44.4835 21.8132 42.8463 21.8132 42.5743C21.8132 42.3022 21.9249 42.0413 22.1238 41.8489L25.3065 40.1471C25.5055 39.9548 25.7752 39.8467 26.0566 39.8467C26.3379 39.8467 26.6077 38.5786 26.8066 38.7709Z" fill="#A59BFF"/>
<path fill-rule="evenodd" clip-rule="evenodd" d="M38.0372 28.782C38.2361 28.5957 38.5059 28.4911 38.7873 28.4911C39.0686 28.4911 39.3384 28.5957 39.5373 28.782L42.72 31.763C42.9189 31.9494 43.0306 32.2021 43.0306 32.4656C43.0306 32.729 42.9189 32.9817 42.72 33.1681L39.5373 36.1491C39.3372 36.3301 39.0692 36.4302 38.7911 36.428C38.5129 36.4257 38.2468 36.3212 38.0501 36.137C37.8534 35.9527 37.7419 35.7035 37.7394 35.443C37.737 35.1824 37.844 34.9314 38.0372 34.744L39.4089 33.4592H27.1174C26.2733 33.4592 25.4638 33.7733 24.867 34.3323C24.2701 34.8914 23.9348 35.6496 23.9348 36.4402C23.9348 36.7038 23.823 36.9565 23.624 37.1429C23.4251 37.3292 23.1552 37.4339 22.8739 37.4339C22.5925 37.4339 22.3227 37.3292 22.1237 37.1429C21.9248 36.9565 21.813 36.7038 21.813 36.4402C21.813 35.1225 22.3718 33.8588 23.3666 32.9271C24.3614 31.9953 25.7106 31.4719 27.1174 31.4719H39.4089L38.0372 30.1871C37.8383 30.0007 37.7266 29.748 37.7266 29.4845C37.7266 29.2211 37.8383 28.9684 38.0372 28.782ZM26.8066 38.7187C27.0055 38.9051 27.1172 39.1578 27.1172 39.4212C27.1172 39.6847 27.0055 39.9374 26.8066 40.1238L25.4349 41.4086H37.7264C38.5705 41.4086 39.38 41.0945 39.9769 40.5355C40.5737 39.9764 40.909 39.2182 40.909 38.4276C40.909 38.164 41.0208 37.9113 41.2198 37.7249C41.4187 37.5386 41.6886 37.4339 41.9699 37.4339C42.2513 37.4339 42.5211 37.5386 42.7201 37.7249C42.919 37.9113 43.0308 38.164 43.0308 38.4276C43.0308 39.7453 42.472 41.009 41.4772 41.9407C40.4824 42.8725 39.1332 43.3959 37.7264 43.3959H25.4349L26.8066 44.6807C26.9079 44.7724 26.9888 44.882 27.0444 45.0033C27.1 45.1245 27.1292 45.2549 27.1304 45.3868C27.1317 45.5188 27.1048 45.6496 27.0515 45.7717C26.9981 45.8939 26.9194 46.0048 26.8198 46.0981C26.7201 46.1914 26.6017 46.2652 26.4713 46.3151C26.3409 46.3651 26.2012 46.3902 26.0604 46.3891C25.9195 46.388 25.7803 46.3605 25.6509 46.3085C25.5214 46.2564 25.4044 46.1807 25.3065 46.0858L22.1238 43.1048C21.9249 42.9184 21.8132 42.6657 21.8132 42.4022C21.8132 42.1388 21.9249 41.8861 22.1238 41.6997L25.3065 38.7187C25.5055 38.5324 25.7752 38.4278 26.0566 38.4278C26.3379 38.4278 26.6077 38.5324 26.8066 38.7187Z" fill="#3B29DC"/>
<path d="M13.6136 22.6859C14.203 19.935 16.634 17.9696 19.4473 17.9696H45.3964C48.2098 17.9696 50.641 19.9349 51.2306 22.6859H13.6136Z" fill="#1B0F86"/>
<path d="M13.8154 21.9785C14.7216 19.1676 17.3378 17.2623 20.2912 17.2623H44.5539C47.5059 17.2623 50.1203 19.1681 51.0237 21.9785H13.8154Z" fill="#3B29DC"/>
<rect x="14.1405" y="18.1609" width="36.5625" height="36.6271" rx="6.28393" stroke="url(#paint2_linear_2689_60594)" stroke-width="1.40625" style="mix-blend-mode:soft-light"/>
<rect x="14.1405" y="18.1609" width="36.5625" height="36.6271" rx="6.28393" stroke="#3B29DC" stroke-opacity="0.3" stroke-width="1.40625"/>
<path d="M22.455 5.90038C22.455 5.40311 22.8581 5 23.3553 5H41.4882C41.9854 5 42.3885 5.40311 42.3885 5.90038V17.2623H22.455V5.90038Z" fill="#E9E9E9"/>
<path d="M26.559 7.94946H29.9091V11.8647H26.559V7.94946Z" fill="#383939"/>
<path d="M34.9344 7.94946H38.2846V11.8647H34.9344V7.94946Z" fill="#383939"/>
<defs>
<linearGradient id="paint0_linear_2689_60594" x1="13.5311" y1="58.363" x2="51.154" y2="58.363" gradientUnits="userSpaceOnUse">
<stop stop-color="#C6C1F5"/>
<stop offset="0.0414257" stop-color="#EDEBFF"/>
<stop offset="0.0815191" stop-color="#857DCD"/>
<stop offset="0.899024" stop-color="#9088DA"/>
<stop offset="0.952865" stop-color="#EDEBFF"/>
<stop offset="1" stop-color="#C6C1F5"/>
</linearGradient>
<linearGradient id="paint1_linear_2689_60594" x1="46.8973" y1="24.3367" x2="18.5943" y2="51.8693" gradientUnits="userSpaceOnUse">
<stop stop-color="#F3F2FF"/>
<stop offset="1" stop-color="#C6C2E7"/>
</linearGradient>
<linearGradient id="paint2_linear_2689_60594" x1="32.4218" y1="14.4152" x2="32.4218" y2="60.0552" gradientUnits="userSpaceOnUse">
<stop stop-color="white" stop-opacity="0.9"/>
<stop offset="1" stop-color="white" stop-opacity="0.1"/>
</linearGradient>
</defs>
</svg>
